<svg width="180" height="36" viewBox="0 0 180 36" fill="none" xmlns="http://www.w3.org/2000/svg">
<rect width="180" height="36" fill="white"/>
<g clip-path="url(#clip0_207_792)">
<mask id="mask0_207_792" style="mask-type:luminance" maskUnits="userSpaceOnUse" x="9" y="2" width="26" height="30">
<path d="M34.7494 2H9V31.5959H34.7494V2Z" fill="white"/>
</mask>
<g mask="url(#mask0_207_792)">
<path d="M34.2242 10.3402L17.4457 6.92983C16.3456 6.70536 15.311 7.54526 15.311 8.66033V16.5598V16.9798V24.8792C15.311 25.9942 16.3456 26.8343 17.4457 26.6097L34.2242 23.1994" stroke="black" stroke-width="2.53542" stroke-miterlimit="10" stroke-linecap="round" stroke-linejoin="round"/>
<path d="M21.269 4.18575C21.2691 2.61922 22.8802 1.57155 24.3231 2.17128L24.3917 2.20106L24.3932 2.20192L33.369 6.3217C34.1567 6.6746 34.6504 7.4565 34.6507 8.3055V11.7955C34.6507 13.0687 33.5596 14.0742 32.2848 13.9762L22.1194 13.2222V20.3173L32.2833 19.5633L32.4024 19.5572C33.6232 19.5276 34.6502 20.5073 34.6431 21.7368V25.2268C34.6431 26.0824 34.1363 26.8528 33.363 27.2102L33.3616 27.2106L24.3935 31.3229C22.931 31.9956 21.269 30.9363 21.269 29.3395V26.0136C21.2031 26.0394 21.1326 26.0566 21.0584 26.0619L16.0979 26.4169C15.6834 26.4464 15.3307 26.12 15.3306 25.707V22.0469C15.3306 21.905 15.3733 21.7719 15.4465 21.6599L11.3657 21.9628H11.3642C10.0929 22.0524 9 21.05 9 19.7819V13.7576C9.00009 12.484 10.0921 11.478 11.3672 11.5769L15.3575 11.8729C15.3403 11.8116 15.3306 11.7473 15.3306 11.6808V7.82527C15.3306 7.26237 15.8373 6.83297 16.3966 6.9219L21.1201 7.67293C21.172 7.6812 21.2217 7.6953 21.269 7.71377V4.18575ZM32.3496 20.406H32.348L22.1194 21.1648V25.5761L33.7929 23.1513V21.7338L33.7915 21.6621C33.7566 20.9248 33.1064 20.3473 32.3496 20.406ZM15.1666 12.7063C15.238 12.8172 15.2795 12.9486 15.2795 13.0889V20.5807C15.2795 20.6676 15.2631 20.7508 15.2342 20.828L21.269 20.3804V13.1589L15.1666 12.7063ZM22.1194 12.3747L32.348 13.1335L32.3496 13.1337L32.4221 13.1374C33.1702 13.1555 33.8003 12.5538 33.8003 11.7955V10.3284L22.1194 7.90177V12.3747Z" fill="black"/>
</g>
<path d="M53.1893 27.528C51.143 27.528 49.3624 27.0978 47.847 26.2373C46.332 25.3769 45.1611 24.1253 44.3346 22.4827C43.528 20.84 43.1245 18.8747 43.1245 16.5867C43.1245 14.4356 43.5672 12.5582 44.4527 10.9547C45.3382 9.33156 46.5584 8.08979 48.1126 7.22933C49.687 6.36889 51.4479 5.93866 53.3959 5.93866C55.0686 5.93866 56.5641 6.25156 57.8823 6.87733C59.2205 7.48356 60.2928 8.37333 61.0995 9.54666C61.9259 10.7005 62.4277 12.0791 62.6048 13.6827H58.5907C58.3941 12.3138 57.843 11.2285 56.9378 10.4267C56.0523 9.60533 54.8717 9.19466 53.3959 9.19466C52.1761 9.19466 51.084 9.49779 50.1197 10.104C49.1752 10.6907 48.4373 11.5413 47.906 12.656C47.3747 13.7707 47.1091 15.0809 47.1091 16.5867C47.1091 18.1511 47.3747 19.52 47.906 20.6933C48.4373 21.8471 49.1655 22.7369 50.0902 23.3627C51.0347 23.9689 52.1073 24.272 53.3074 24.272C54.8029 24.272 56.0426 23.8418 57.0263 22.9813C58.0104 22.1013 58.6104 20.9671 58.8268 19.5787H62.6933C62.5162 21.1627 62.0245 22.5609 61.2175 23.7733C60.4307 24.9662 59.3483 25.8951 57.9708 26.56C56.5937 27.2053 54.9998 27.528 53.1893 27.528Z" fill="black"/>
<path d="M71.1455 27.528C69.7093 27.528 68.4301 27.2249 67.3085 26.6187C66.1869 25.9929 65.3115 25.1129 64.6816 23.9787C64.0718 22.8249 63.7666 21.4658 63.7666 19.9013C63.7666 18.3565 64.0815 17.0071 64.7111 15.8533C65.341 14.6996 66.2067 13.8098 67.3085 13.184C68.4301 12.5387 69.7093 12.216 71.1455 12.216C72.582 12.216 73.8609 12.5289 74.9825 13.1547C76.1041 13.7805 76.9798 14.68 77.6094 15.8533C78.2393 17.0071 78.5539 18.3565 78.5539 19.9013C78.5539 21.4658 78.2393 22.8249 77.6094 23.9787C76.9798 25.1129 76.1041 25.9929 74.9825 26.6187C73.8609 27.2249 72.582 27.528 71.1455 27.528ZM71.1455 24.712C72.2869 24.712 73.1921 24.2916 73.8609 23.4507C74.5498 22.5902 74.894 21.4071 74.894 19.9013C74.894 18.376 74.5498 17.1929 73.8609 16.352C73.1723 15.4916 72.2671 15.0613 71.1455 15.0613C70.0239 15.0613 69.119 15.4916 68.4301 16.352C67.7613 17.1929 67.4265 18.376 67.4265 19.9013C67.4265 21.4071 67.7613 22.5902 68.4301 23.4507C69.0992 24.2916 70.0044 24.712 71.1455 24.712Z" fill="black"/>
<path d="M80.5415 12.6853H84.1424V13.3307C84.1424 13.8587 84.1032 14.328 84.0243 14.7387C84.4376 14.0151 84.9886 13.4187 85.6772 12.9493C86.3658 12.4605 87.2023 12.216 88.186 12.216C89.0323 12.216 89.7997 12.4898 90.4882 13.0373C91.1768 13.5653 91.6689 14.1813 91.964 14.8853C92.4165 14.1422 93.0561 13.5165 93.8825 13.008C94.7287 12.48 95.6437 12.216 96.6275 12.216C97.5918 12.216 98.4477 12.4605 99.1953 12.9493C99.9429 13.4187 100.524 14.0933 100.937 14.9733C101.37 15.8338 101.586 16.8409 101.586 17.9947V27H97.9852V18.5227C97.9852 17.4667 97.7786 16.6258 97.3654 16C96.9521 15.3742 96.3618 15.0613 95.5944 15.0613C94.8072 15.0613 94.1482 15.3938 93.6169 16.0587C93.1054 16.7236 92.8495 17.5938 92.8495 18.6693V27H89.2486V18.5227C89.2486 17.4471 89.042 16.6062 88.6288 16C88.2353 15.3742 87.645 15.0613 86.8578 15.0613C86.0706 15.0613 85.4213 15.3938 84.9098 16.0587C84.3983 16.704 84.1424 17.5742 84.1424 18.6693V27H80.5415V12.6853Z" fill="black"/>
<path d="M104.271 12.6853H107.872V13.3307C107.872 13.7413 107.833 14.2107 107.754 14.7387C108.758 13.0569 110.332 12.216 112.477 12.216C113.736 12.216 114.838 12.5485 115.783 13.2133C116.746 13.8587 117.484 14.768 117.996 15.9413C118.527 17.0951 118.793 18.4249 118.793 19.9307C118.793 21.4365 118.508 22.7662 117.937 23.92C117.386 25.0738 116.619 25.9636 115.635 26.5893C114.651 27.2151 113.549 27.528 112.329 27.528C111.188 27.528 110.263 27.3129 109.555 26.8827C108.866 26.4525 108.266 25.8365 107.754 25.0347C107.833 25.5627 107.872 26.0222 107.872 26.4133V32.984H104.271V12.6853ZM111.444 24.712C112.546 24.712 113.431 24.272 114.1 23.392C114.789 22.4925 115.133 21.3191 115.133 19.872C115.133 18.4445 114.798 17.2907 114.13 16.4107C113.48 15.5111 112.585 15.0613 111.444 15.0613C110.342 15.0613 109.446 15.5013 108.758 16.3813C108.069 17.2418 107.725 18.4053 107.725 19.872C107.725 21.2996 108.069 22.4631 108.758 23.3627C109.446 24.2622 110.342 24.712 111.444 24.712Z" fill="black"/>
<path d="M127.29 27.528C125.853 27.528 124.574 27.2249 123.453 26.6187C122.331 25.9929 121.455 25.1129 120.826 23.9787C120.216 22.8249 119.911 21.4658 119.911 19.9013C119.911 18.3565 120.226 17.0071 120.855 15.8533C121.485 14.6996 122.351 13.8098 123.453 13.184C124.574 12.5387 125.853 12.216 127.29 12.216C128.726 12.216 130.005 12.5289 131.127 13.1547C132.248 13.7805 133.124 14.68 133.753 15.8533C134.383 17.0071 134.698 18.3565 134.698 19.9013C134.698 21.4658 134.383 22.8249 133.753 23.9787C133.124 25.1129 132.248 25.9929 131.127 26.6187C130.005 27.2249 128.726 27.528 127.29 27.528ZM127.29 24.712C128.431 24.712 129.336 24.2916 130.005 23.4507C130.694 22.5902 131.038 21.4071 131.038 19.9013C131.038 18.376 130.694 17.1929 130.005 16.352C129.316 15.4916 128.411 15.0613 127.29 15.0613C126.168 15.0613 125.263 15.4916 124.574 16.352C123.905 17.1929 123.571 18.376 123.571 19.9013C123.571 21.4071 123.905 22.5902 124.574 23.4507C125.243 24.2916 126.148 24.712 127.29 24.712Z" fill="black"/>
<path d="M142.411 27.528C140.385 27.528 138.771 27.0391 137.571 26.0613C136.371 25.0836 135.711 23.7538 135.593 22.072H139.253C139.293 22.9325 139.578 23.6169 140.109 24.1253C140.64 24.6142 141.378 24.8587 142.323 24.8587C143.13 24.8587 143.769 24.6925 144.241 24.36C144.733 24.008 144.979 23.5582 144.979 23.0107C144.979 22.5413 144.783 22.1796 144.389 21.9253C144.015 21.6711 143.425 21.4658 142.618 21.3093L140.877 20.9573C137.728 20.3511 136.154 18.8942 136.154 16.5867C136.154 15.7653 136.4 15.0222 136.892 14.3573C137.384 13.6925 138.073 13.1742 138.958 12.8027C139.863 12.4116 140.896 12.216 142.057 12.216C143.966 12.216 145.491 12.6756 146.632 13.5947C147.793 14.4942 148.393 15.6969 148.433 17.2027H144.832C144.773 16.4987 144.497 15.9413 144.005 15.5307C143.513 15.1005 142.864 14.8853 142.057 14.8853C141.369 14.8853 140.798 15.0222 140.345 15.296C139.913 15.5698 139.696 15.9511 139.696 16.44C139.696 16.8702 139.863 17.2125 140.198 17.4667C140.552 17.7013 141.182 17.9067 142.087 18.0827L143.828 18.4347C146.957 19.0409 148.521 20.4978 148.521 22.8053C148.521 23.7049 148.265 24.5165 147.754 25.24C147.262 25.9636 146.554 26.5307 145.629 26.9413C144.704 27.3325 143.632 27.528 142.411 27.528Z" fill="black"/>
<path d="M150.529 12.6853H154.13V27H150.529V12.6853ZM150.44 6.76001H154.189V10.5147H150.44V6.76001Z" fill="black"/>
<path d="M163.488 27.528C162.051 27.528 160.772 27.2249 159.651 26.6187C158.529 25.9929 157.653 25.1129 157.024 23.9787C156.414 22.8249 156.109 21.4658 156.109 19.9013C156.109 18.3565 156.423 17.0071 157.053 15.8533C157.683 14.6996 158.549 13.8098 159.651 13.184C160.772 12.5387 162.051 12.216 163.488 12.216C164.924 12.216 166.203 12.5289 167.325 13.1547C168.446 13.7805 169.322 14.68 169.952 15.8533C170.581 17.0071 170.896 18.3565 170.896 19.9013C170.896 21.4658 170.581 22.8249 169.952 23.9787C169.322 25.1129 168.446 25.9929 167.325 26.6187C166.203 27.2249 164.924 27.528 163.488 27.528ZM163.488 24.712C164.629 24.712 165.534 24.2916 166.203 23.4507C166.892 22.5902 167.236 21.4071 167.236 19.9013C167.236 18.376 166.892 17.1929 166.203 16.352C165.514 15.4916 164.609 15.0613 163.488 15.0613C162.366 15.0613 161.461 15.4916 160.772 16.352C160.103 17.1929 159.769 18.376 159.769 19.9013C159.769 21.4071 160.103 22.5902 160.772 23.4507C161.441 24.2916 162.346 24.712 163.488 24.712Z" fill="black"/>
</g>
<defs>
<clipPath id="clip0_207_792">
<rect width="162" height="31" fill="white" transform="translate(9 2)"/>
</clipPath>
</defs>
</svg>
