<?xml version="1.0" encoding="UTF-8"?>
<svg id="Layer_2" data-name="Layer 2" xmlns="http://www.w3.org/2000/svg" viewBox="0 0 181.79 30">
  <defs>
    <style>
      .cls-1 {
        fill: #fff;
      }
    </style>
  </defs>
  <g id="Layer_1-2" data-name="Layer 1">
    <g id="Groupe_55508-2" data-name="Groupe 55508-2">
      <path id="Tracé_100416" data-name="Tracé 100416" class="cls-1" d="M154.72,23.96c-3.64,0-6.59-2.95-6.59-6.59h0v-6.05c0-.3.25-.55.55-.55h5.23v-6.01h-5.78V0h-6.01v17.36c0,6.97,5.65,12.62,12.62,12.61h1.85v-6.02h-1.86Z"/>
      <path id="Tracé_100417" data-name="Tracé 100417" class="cls-1" d="M34.64,4.78c-6.96,0-12.61,5.64-12.61,12.61s5.64,12.61,12.61,12.61,12.61-5.64,12.61-12.61h0c0-6.96-5.64-12.61-12.61-12.61M34.64,23.99c-3.65.14-6.71-2.7-6.85-6.35-.14-3.65,2.7-6.71,6.35-6.85,3.65-.14,6.71,2.7,6.85,6.35,0,.08,0,.17,0,.25.07,3.58-2.78,6.53-6.35,6.6"/>
      <path id="Tracé_100418" data-name="Tracé 100418" class="cls-1" d="M0,22.41v7h6.04v-4.85l2.29-2.72.09-.11h0s6.44,7.68,6.44,7.68h7.88l-10.07-12c-.18-.22-.18-.54,0-.75l9.36-11.27h-7.88l-5.82,7.06-2.29,2.73V.02H0v22.4Z"/>
      <path id="Tracé_100419" data-name="Tracé 100419" class="cls-1" d="M88.97,7.39l-7.74,18.22c-.8,1.89-2.38,3.36-4.33,4.01-1.49.5-3.1.5-4.59,0-1.94-.65-3.5-2.1-4.31-3.98l-.04-.09-3.06-7.21-2.8-6.58-.03-.06c-.15-.27-.48-.37-.75-.22-.11.06-.2.16-.25.27l-2.8,6.6-4.94,11.64-6.11-2.59,7.74-18.23c1.55-3.66,5.76-5.37,9.42-3.83,1.72.73,3.1,2.1,3.83,3.83l3.08,7.25,2.78,6.54h0s.03.08.04.11h0c.15.27.49.37.76.21.1-.06.18-.14.23-.24,0-.02.01-.03.02-.05l2.79-6.57,4.94-11.63,6.12,2.59Z"/>
      <path id="Tracé_100420" data-name="Tracé 100420" class="cls-1" d="M134.21,20.95l5.77,2.45h0c-3.32,6.12-10.97,8.39-17.09,5.08-6.12-3.32-8.39-10.97-5.08-17.09,3.32-6.12,10.97-8.39,17.09-5.08,2.16,1.17,3.94,2.95,5.1,5.12l-5.78,2.45c-1.14-1.94-3.24-3.12-5.49-3.08-3.64.25-6.39,3.41-6.13,7.05.24,3.41,3.04,6.08,6.45,6.15,2.13-.06,4.07-1.21,5.16-3.04"/>
      <path id="Tracé_100421" data-name="Tracé 100421" class="cls-1" d="M113.95,19.8c1.33-6.83-3.13-13.45-9.96-14.78-6.83-1.33-13.45,3.13-14.78,9.96-1.33,6.83,3.13,13.45,9.96,14.78,5.16,1,10.4-1.3,13.15-5.78l-5.66-2.4c-2.32,2.81-6.48,3.21-9.29.89-.87-.71-1.53-1.64-1.94-2.68h18.52ZM95.43,14.99c1.33-3.4,5.16-5.07,8.55-3.75,1.72.67,3.08,2.03,3.75,3.75h-12.3Z"/>
      <path id="Tracé_100422" data-name="Tracé 100422" class="cls-1" d="M175.78,5.39v1.26c-5.93-3.64-13.69-1.79-17.34,4.14-3.64,5.93-1.79,13.69,4.14,17.34,4.05,2.49,9.15,2.49,13.2,0v1.28h6V5.39h-6ZM169.43,23.99c-3.65.14-6.71-2.7-6.85-6.35-.14-3.65,2.7-6.71,6.35-6.85s6.71,2.7,6.85,6.35c0,.08,0,.17,0,.25.07,3.58-2.78,6.53-6.35,6.6"/>
    </g>
  </g>
</svg>