<?xml version="1.0" encoding="UTF-8"?>
<svg id="Layer_2" data-name="Layer 2" xmlns="http://www.w3.org/2000/svg" viewBox="0 0 244.29 42">
  <defs>
    <style>
      .cls-1 {
        fill: #fff;
      }
    </style>
  </defs>
  <g id="Layer_1-2" data-name="Layer 1">
    <g id="uuid-685620d2-2253-476a-9ba8-feb06963f7db" data-name="Layer 1-2">
      <g>
        <path class="cls-1" d="M52.4,17.48h-5.24v-4.18h14.88v4.18h-5.24v17.66h-4.4v-17.66h0Z"/>
        <path class="cls-1" d="M60.17,27.74c0-4.83,2.43-7.9,6.61-7.9s6.61,3.43,6.11,9.48h-8.39c.34,2.18,1.65,3.06,3.81,3.06,1.25,0,2.43-.16,3.68-.65v3.12c-1.22.56-2.59.78-4.24.78-4.9,0-7.58-3-7.58-7.89h0ZM69.06,26.56c0-2.12-.62-3.28-2.22-3.28s-2.34,1.25-2.5,3.28h4.71Z"/>
        <path class="cls-1" d="M79.09,35.13h-4.18V12.36h4.18v22.78h0Z"/>
        <path class="cls-1" d="M80.96,27.64c0-4.83,2.43-7.9,6.62-7.9s6.61,3.43,6.11,9.48h-8.39c.34,2.18,1.65,3.06,3.81,3.06,1.25,0,2.43-.16,3.68-.65v3.12c-1.22.56-2.59.78-4.24.78-4.9,0-7.58-3-7.58-7.89h0ZM89.85,26.46c0-2.12-.62-3.28-2.22-3.28s-2.34,1.25-2.5,3.28h4.71Z"/>
        <path class="cls-1" d="M103.25,35.54c-1.69,0-2.78-.72-3.49-1.53v7.99h-4.18v-21.84h3.74v1.53c.69-.97,1.9-1.93,3.84-1.93,4.02,0,5.49,3.68,5.49,7.9,0,4.62-1.69,7.89-5.4,7.89h0ZM99.75,30.36c.5.94,1.28,1.53,2.28,1.53,1.78,0,2.46-1.53,2.46-4.24s-.69-4.24-2.46-4.24c-1,0-1.78.59-2.28,1.53v5.43Z"/>
        <path class="cls-1" d="M109.91,27.64c0-4.83,2.43-7.9,6.62-7.9s6.61,3.43,6.11,9.48h-8.39c.34,2.18,1.65,3.06,3.81,3.06,1.25,0,2.43-.16,3.68-.65v3.12c-1.22.56-2.59.78-4.24.78-4.9,0-7.58-3-7.58-7.89h0ZM118.8,26.46c0-2.12-.62-3.28-2.22-3.28s-2.34,1.25-2.5,3.28h4.71,0Z"/>
        <path class="cls-1" d="M124.31,20.16h3.74v2.28c.91-1.9,2.59-2.78,4.83-2.59v4.24c-2-.25-3.59.47-4.4,2.56v8.49h-4.18v-14.98h0Z"/>
        <path class="cls-1" d="M136.37,23.78h-1.96v-3.62h1.96v-1.96c0-3.9,2.46-5.3,5.15-5.3,1.09,0,1.87.16,2.71.5v3.43c-.5-.22-1.09-.31-1.69-.31-1.18,0-2,.56-2,1.84v1.81h3v3.62h-3v11.36h-4.18v-11.36h0Z"/>
        <path class="cls-1" d="M157.56,27.64c0,4.93-2.4,7.89-6.71,7.89s-6.74-2.97-6.74-7.89,2.4-7.9,6.74-7.9,6.71,2.93,6.71,7.9ZM148.33,27.64c0,2.74.72,4.24,2.53,4.24s2.5-1.5,2.5-4.24-.72-4.27-2.5-4.27-2.53,1.53-2.53,4.27Z"/>
        <path class="cls-1" d="M159.07,20.16h3.74v2.28c.91-1.9,2.59-2.78,4.83-2.59v4.24c-2-.25-3.59.47-4.4,2.56v8.49h-4.18v-14.98h0Z"/>
        <path class="cls-1" d="M188.79,24.56v10.58h-4.12v-9.7c0-1.22-.56-1.81-1.56-1.81-.88,0-1.56.5-2.09,1.34v10.17h-4.09v-9.7c0-1.22-.59-1.81-1.56-1.81-.84,0-1.56.5-2.09,1.4v10.11h-4.12v-14.98h3.74v1.4c.87-1.12,2.15-1.81,3.78-1.81s2.84.69,3.56,1.81c1.09-1.28,2.43-1.81,4.05-1.81,3.03,0,4.49,2.12,4.49,4.8h0Z"/>
        <path class="cls-1" d="M204.23,32.14v2.93c-.62.19-1.25.28-2,.28-1.15,0-2.22-.34-2.84-1.15-1.12.91-2.46,1.34-4.02,1.34-2.56,0-4.77-1.5-4.77-4.65s2.34-4.8,5.68-4.8c.81,0,1.5.09,2.4.28v-.81c0-1.22-.56-2.28-2.62-2.28-1.69,0-3.28.41-4.52.94v-3.59c1.37-.5,3.21-.88,4.93-.88,4.15,0,6.3,1.84,6.3,6.11v5.33c0,.75.37,1,.97,1,.16,0,.34-.03.5-.06ZM198.68,31.83v-2.87c-.53-.13-1-.19-1.5-.19-1.53,0-2.56.5-2.56,2,0,1.34.81,1.93,1.81,1.93.94,0,1.59-.28,2.25-.87h0Z"/>
        <path class="cls-1" d="M205.78,20.16h3.74v1.4c.84-1,2.09-1.81,4.05-1.81,2.37,0,4.52,1.65,4.52,4.77v10.61h-4.18v-9.7c0-1.28-.62-1.81-1.72-1.81s-1.84.72-2.25,1.5v10.02h-4.18v-14.98h0Z"/>
        <path class="cls-1" d="M219.85,27.77c0-5.15,3-8.02,7.11-8.02,1.28,0,2.25.19,3.28.69v3.53c-.78-.41-1.59-.62-2.62-.62-2.18,0-3.56,1.59-3.56,4.31s1.22,4.24,3.37,4.24c1.28,0,2.18-.28,2.97-.62v3.62c-.94.44-2.09.65-3.62.65-4.02,0-6.92-2.78-6.92-7.77h0Z"/>
        <path class="cls-1" d="M231.5,27.64c0-4.83,2.43-7.9,6.61-7.9s6.61,3.43,6.11,9.48h-8.39c.34,2.18,1.65,3.06,3.81,3.06,1.25,0,2.43-.16,3.68-.65v3.12c-1.22.56-2.59.78-4.24.78-4.9,0-7.58-3-7.58-7.89h0ZM240.4,26.46c0-2.12-.62-3.28-2.22-3.28s-2.34,1.25-2.5,3.28h4.71Z"/>
        <path class="cls-1" d="M25.66,0H1.47C.66,0,0,.66,0,1.47v7.21c0,.6.12.93.4,1.22,2.07,2.07,6.29,6.29,8.36,8.36.13.13.33.05.33-.12v-8.53c0-.18-.15-.33-.33-.33H2.15c-.43,0-.78-.35-.78-.78V2.15c0-.43.35-.78.78-.78h22.17c.43,0,.78.35.78.78v6.35c0,.43-.35.78-.78.78h-6.61c-.18,0-.33.15-.33.33v24.75c0,.43-.35.78-.78.78h-6.58c-.17,0-.29.21-.17.34,1.44,1.44,4.34,4.34,5.81,5.81.39.39.91.73,1.57.73h6.31c.6,0,1.08-.49,1.08-1.08v-14.74c0-.18.15-.33.33-.33h.69c7.09,0,13.99-4.33,13.99-12.97,0-7.69-5.3-12.87-13.98-12.87Z"/>
      </g>
    </g>
  </g>
</svg>